<svg width="20" height="21" viewBox="0 0 20 21" fill="none" xmlns="http://www.w3.org/2000/svg">
<g clip-path="url(#clip0_103_1317)">
<path d="M10 0.500122C4.4772 0.500122 0 4.97732 0 10.5001C0 15.1897 3.2288 19.1249 7.5844 20.2057V13.5561H5.5224V10.5001H7.5844V9.18332C7.5844 5.77972 9.1248 4.20212 12.4664 4.20212C13.1 4.20212 14.1932 4.32652 14.6404 4.45052V7.22052C14.4044 7.19572 13.9944 7.18332 13.4852 7.18332C11.8456 7.18332 11.212 7.80452 11.212 9.41932V10.5001H14.4784L13.9172 13.5561H11.212V20.4269C16.1636 19.8289 20.0004 15.6129 20.0004 10.5001C20 4.97732 15.5228 0.500122 10 0.500122Z" fill="#060707"/>
</g>
<defs>
<clipPath id="clip0_103_1317">
<rect width="20" height="20" fill="white" transform="translate(0 0.500122)"/>
</clipPath>
</defs>
</svg>
