<svg width="20" height="21" viewBox="0 0 20 21" fill="none" xmlns="http://www.w3.org/2000/svg">
<g clip-path="url(#clip0_103_1319)">
<path d="M10 2.3009C12.6719 2.3009 12.9883 2.31262 14.0391 2.3595C15.0156 2.40247 15.543 2.56653 15.8945 2.70325C16.3594 2.88293 16.6953 3.10168 17.043 3.44934C17.3945 3.8009 17.6094 4.13294 17.7891 4.59778C17.9258 4.94934 18.0898 5.48059 18.1328 6.45325C18.1797 7.50793 18.1914 7.82434 18.1914 10.4923C18.1914 13.1642 18.1797 13.4806 18.1328 14.5314C18.0898 15.5079 17.9258 16.0353 17.7891 16.3868C17.6094 16.8517 17.3906 17.1876 17.043 17.5353C16.6914 17.8868 16.3594 18.1017 15.8945 18.2814C15.543 18.4181 15.0117 18.5822 14.0391 18.6251C12.9844 18.672 12.668 18.6837 10 18.6837C7.32813 18.6837 7.01172 18.672 5.96094 18.6251C4.98438 18.5822 4.45703 18.4181 4.10547 18.2814C3.64063 18.1017 3.30469 17.8829 2.95703 17.5353C2.60547 17.1837 2.39063 16.8517 2.21094 16.3868C2.07422 16.0353 1.91016 15.504 1.86719 14.5314C1.82031 13.4767 1.80859 13.1603 1.80859 10.4923C1.80859 7.82044 1.82031 7.50403 1.86719 6.45325C1.91016 5.47668 2.07422 4.94934 2.21094 4.59778C2.39063 4.13294 2.60938 3.797 2.95703 3.44934C3.30859 3.09778 3.64063 2.88293 4.10547 2.70325C4.45703 2.56653 4.98828 2.40247 5.96094 2.3595C7.01172 2.31262 7.32813 2.3009 10 2.3009ZM10 0.500122C7.28516 0.500122 6.94531 0.511841 5.87891 0.558716C4.81641 0.605591 4.08594 0.777466 3.45313 1.02356C2.79297 1.28137 2.23438 1.62122 1.67969 2.17981C1.12109 2.7345 0.78125 3.29309 0.523438 3.94934C0.277344 4.58606 0.105469 5.31262 0.0585938 6.37512C0.0117188 7.44543 0 7.78528 0 10.5001C0 13.215 0.0117188 13.5548 0.0585938 14.6212C0.105469 15.6837 0.277344 16.4142 0.523438 17.047C0.78125 17.7072 1.12109 18.2657 1.67969 18.8204C2.23438 19.3751 2.79297 19.7189 3.44922 19.9728C4.08594 20.2189 4.8125 20.3907 5.875 20.4376C6.94141 20.4845 7.28125 20.4962 9.99609 20.4962C12.7109 20.4962 13.0508 20.4845 14.1172 20.4376C15.1797 20.3907 15.9102 20.2189 16.543 19.9728C17.1992 19.7189 17.7578 19.3751 18.3125 18.8204C18.8672 18.2657 19.2109 17.7072 19.4648 17.0509C19.7109 16.4142 19.8828 15.6876 19.9297 14.6251C19.9766 13.5587 19.9883 13.2189 19.9883 10.504C19.9883 7.78919 19.9766 7.44934 19.9297 6.38294C19.8828 5.32044 19.7109 4.58997 19.4648 3.95715C19.2188 3.29309 18.8789 2.7345 18.3203 2.17981C17.7656 1.62512 17.207 1.28137 16.5508 1.02747C15.9141 0.781372 15.1875 0.609497 14.125 0.562622C13.0547 0.511841 12.7148 0.500122 10 0.500122Z" fill="#060707"/>
<path d="M10 5.3634C7.16406 5.3634 4.86328 7.66418 4.86328 10.5001C4.86328 13.3361 7.16406 15.6368 10 15.6368C12.8359 15.6368 15.1367 13.3361 15.1367 10.5001C15.1367 7.66418 12.8359 5.3634 10 5.3634ZM10 13.8322C8.16016 13.8322 6.66797 12.34 6.66797 10.5001C6.66797 8.66028 8.16016 7.16809 10 7.16809C11.8398 7.16809 13.332 8.66028 13.332 10.5001C13.332 12.34 11.8398 13.8322 10 13.8322Z" fill="#060707"/>
<path d="M16.5391 5.16025C16.5391 5.82431 16 6.35947 15.3398 6.35947C14.6758 6.35947 14.1406 5.82041 14.1406 5.16025C14.1406 4.49619 14.6797 3.96103 15.3398 3.96103C16 3.96103 16.5391 4.50009 16.5391 5.16025Z" fill="#060707"/>
</g>
<defs>
<clipPath id="clip0_103_1319">
<rect width="20" height="20" fill="white" transform="translate(0 0.500122)"/>
</clipPath>
</defs>
</svg>
