<svg width="20" height="21" viewBox="0 0 20 21" fill="none" xmlns="http://www.w3.org/2000/svg">
<path d="M19.8008 6.50015C19.8008 6.50015 19.6055 5.12125 19.0039 4.51578C18.2422 3.7189 17.3906 3.715 17 3.66812C14.2031 3.465 10.0039 3.465 10.0039 3.465H9.99609C9.99609 3.465 5.79688 3.465 3 3.66812C2.60938 3.715 1.75781 3.7189 0.996094 4.51578C0.394531 5.12125 0.203125 6.50015 0.203125 6.50015C0.203125 6.50015 0 8.12125 0 9.73843V11.2541C0 12.8712 0.199219 14.4923 0.199219 14.4923C0.199219 14.4923 0.394531 15.8712 0.992187 16.4767C1.75391 17.2736 2.75391 17.2462 3.19922 17.3322C4.80078 17.4845 10 17.5314 10 17.5314C10 17.5314 14.2031 17.5236 17 17.3244C17.3906 17.2775 18.2422 17.2736 19.0039 16.4767C19.6055 15.8712 19.8008 14.4923 19.8008 14.4923C19.8008 14.4923 20 12.8752 20 11.2541V9.73843C20 8.12125 19.8008 6.50015 19.8008 6.50015ZM7.93359 13.0939V7.47281L13.3359 10.2931L7.93359 13.0939Z" fill="#060707"/>
</svg>
