<svg width="22" height="22" viewBox="0 0 22 22" fill="none" xmlns="http://www.w3.org/2000/svg">
<path d="M20.041 5.28718H15.8779C15.5672 2.87188 13.4984 1 11 1C8.5016 1 6.43409 2.87188 6.12211 5.28718H1.95896C1.42961 5.28718 1 5.71679 1 6.24613V20.041C1 20.5704 1.42961 21 1.95896 21H20.041C20.5704 21 21 20.5704 21 20.041V6.24613C21 5.71679 20.5704 5.28718 20.041 5.28718ZM11 2.91791C12.4384 2.91791 13.6429 3.93441 13.9344 5.28718H8.06559C8.35712 3.93441 9.56157 2.91791 11 2.91791ZM19.0821 19.0821H2.91791V7.20509H6.07991V9.48357C6.07991 10.0129 6.50953 10.4425 7.03887 10.4425C7.56821 10.4425 7.99783 10.0129 7.99783 9.48357V7.20509H14.0022V9.40813C14.0022 9.93748 14.4318 10.3671 14.9611 10.3671C15.4905 10.3671 15.9201 9.93748 15.9201 9.40813V7.20509H19.0821V19.0821Z" fill="#060707"/>
</svg>
