<svg width="123" height="20" viewBox="0 0 123 20" fill="none" xmlns="http://www.w3.org/2000/svg">
<path d="M18.5104 8.9622C18.6831 9.09968 18.7697 9.2735 18.7697 9.48337V16.2215C18.7697 16.4965 18.6172 16.7148 18.3126 16.876C17.398 17.3771 16.3815 17.7649 15.2638 18.0393C14.1458 18.3139 13.0079 18.4516 11.8494 18.4516C9.77653 18.4516 7.90653 18.0721 6.24035 17.3124C4.5736 16.5528 3.2628 15.5107 2.30776 14.1857C1.35234 12.8606 0.875 11.374 0.875 9.72571C0.875 8.07759 1.35234 6.59109 2.30776 5.26589C3.2628 3.94114 4.5736 2.89895 6.24035 2.13931C7.90653 1.37997 9.77653 1 11.8494 1C12.9266 1 13.9682 1.10531 14.9742 1.31518C15.9802 1.52534 16.8794 1.82413 17.6722 2.212C17.9566 2.35737 18.099 2.55964 18.099 2.81792C18.099 3.02809 18.0124 3.20578 17.8397 3.35116C17.667 3.49653 17.4688 3.56936 17.2455 3.56936C17.042 3.56936 16.8592 3.52915 16.6966 3.44812C15.1724 2.78575 13.5568 2.45433 11.8494 2.45433C10.122 2.45433 8.57251 2.76936 7.20064 3.39956C5.82876 4.02977 4.75663 4.89858 3.98443 6.00527C3.21185 7.11226 2.82593 8.35255 2.82593 9.72571C2.82593 11.0993 3.21185 12.3396 3.98443 13.4463C4.75663 14.5533 5.82876 15.4217 7.20064 16.0517C8.57251 16.6821 10.122 16.9972 11.8494 16.9972C12.7232 16.9972 13.6025 16.9001 14.4864 16.7065C15.3706 16.5123 16.1578 16.2459 16.8491 15.9063V10.2105H12.0326C11.7681 10.2105 11.5448 10.142 11.3616 10.0045C11.1789 9.86736 11.0875 9.69354 11.0875 9.48337C11.0875 9.2735 11.1789 9.09968 11.3616 8.9622C11.5448 8.82517 11.7681 8.75621 12.0326 8.75621H17.8551C18.1189 8.75621 18.3377 8.82517 18.5104 8.9622Z" fill="#060707"/>
<path d="M36.9842 16.9972C37.1565 17.1426 37.2434 17.3124 37.2434 17.506C37.2434 17.7164 37.1565 17.8862 36.9842 18.0152C36.8111 18.1447 36.5926 18.2091 36.3289 18.2091H25.1407C24.8765 18.2091 24.6577 18.1406 24.4854 18.0029C24.3123 17.8659 24.2261 17.6919 24.2261 17.4819V1.96951C24.2261 1.75979 24.3123 1.58596 24.4854 1.44848C24.6577 1.3113 24.8765 1.24249 25.1407 1.24249H36.3289C36.5926 1.24249 36.8111 1.3113 36.9842 1.44848C37.1565 1.58596 37.2434 1.75979 37.2434 1.96951C37.2434 2.17982 37.1565 2.34948 36.9842 2.47861C36.8111 2.60805 36.5926 2.67255 36.3289 2.67255H26.1467V8.7562H34.9568C35.2209 8.7562 35.4394 8.82517 35.6125 8.9622C35.7848 9.09968 35.8714 9.2735 35.8714 9.48337C35.8714 9.69354 35.7848 9.86319 35.6125 9.99233C35.4394 10.1219 35.2209 10.1863 34.9568 10.1863H26.1467V16.7792H36.3289C36.5926 16.7792 36.8111 16.8519 36.9842 16.9972Z" fill="#060707"/>
<path d="M61.5242 1.44849C61.6966 1.58597 61.7835 1.75979 61.7835 1.96951V17.4819C61.7835 17.6919 61.6921 17.8659 61.5089 18.0029C61.326 18.1406 61.1023 18.2091 60.8382 18.2091C60.5534 18.2091 60.32 18.1406 60.1372 18.0029C59.9543 17.8659 59.8629 17.6919 59.8629 17.4819V4.15101L52.6987 12.7796C52.4953 12.9899 52.2615 13.087 51.9977 13.0707H51.9367C51.6927 13.0707 51.4691 12.9738 51.266 12.7796L44.1022 4.1026V17.4819C44.1022 17.6919 44.0153 17.8659 43.8429 18.0029C43.6702 18.1406 43.4514 18.2091 43.1876 18.2091C42.9231 18.2091 42.7099 18.1406 42.5473 18.0029C42.3843 17.8659 42.3034 17.6919 42.3034 17.4819V1.96951C42.3034 1.77573 42.3896 1.60608 42.5627 1.46055C42.735 1.31518 42.9538 1.24249 43.218 1.24249C43.36 1.24249 43.5125 1.27079 43.6754 1.32724C43.8377 1.38414 43.9598 1.46055 44.0411 1.55752L52.0281 11.0831L60.0761 1.55752C60.2998 1.31518 60.574 1.21032 60.8993 1.24249C61.1432 1.24249 61.3515 1.31131 61.5242 1.44849Z" fill="#060707"/>
<path d="M90.6372 17.8698C89.5094 17.4819 88.4165 16.876 87.3599 16.0517C87.1164 15.8905 86.9942 15.6966 86.9942 15.4702C86.9942 15.2763 87.0905 15.0984 87.2839 14.937C87.4768 14.7755 87.6953 14.6945 87.9392 14.6945C88.1831 14.6945 88.4068 14.7755 88.6098 14.937C90.1951 16.327 92.1768 17.0214 94.5544 17.0214C96.0179 17.0214 97.2319 16.747 98.1974 16.1974C99.1626 15.6484 99.6455 14.9289 99.6455 14.0403C99.6455 13.3456 99.4065 12.7677 98.9291 12.3071C98.4514 11.8466 97.8265 11.4709 97.0543 11.18C96.2817 10.8892 95.2963 10.5904 94.0973 10.2832C92.7965 9.97654 91.7043 9.63709 90.8201 9.26531C89.9362 8.89369 89.2198 8.39679 88.6709 7.77463C88.1224 7.15277 87.8478 6.36498 87.8478 5.41141C87.8478 4.55511 88.1374 3.79577 88.7166 3.13295C89.2959 2.47057 90.1086 1.94955 91.1554 1.56958C92.2019 1.19021 93.4061 1 94.768 1C96.0074 1 97.1712 1.16593 98.2585 1.49689C99.3454 1.8283 100.214 2.30092 100.865 2.91488C101.17 3.18984 101.322 3.42384 101.322 3.61777C101.322 3.79577 101.22 3.96125 101.017 4.11467C100.814 4.26838 100.59 4.34494 100.347 4.34494C100.143 4.34494 99.9704 4.28849 99.8284 4.17529C99.2798 3.65829 98.5481 3.23825 97.6335 2.91488C96.7189 2.59181 95.7635 2.43006 94.768 2.43006C93.2843 2.43006 92.0748 2.69295 91.1404 3.21785C90.2052 3.74319 89.738 4.45814 89.738 5.36286C89.738 6.30019 90.1846 7.01946 91.0793 7.52008C91.9733 8.02114 93.2536 8.48169 94.9205 8.90173C96.363 9.24103 97.5421 9.58868 98.4567 9.94392C99.3713 10.2995 100.118 10.8044 100.697 11.4587C101.276 12.1132 101.566 12.9738 101.566 14.0403C101.566 14.8643 101.266 15.612 100.667 16.2823C100.067 16.9529 99.2341 17.4819 98.1671 17.8698C97.1 18.2573 95.8853 18.4516 94.5241 18.4516C93.0606 18.4516 91.7654 18.2573 90.6372 17.8698Z" fill="#060707"/>
<path d="M122.616 1.44848C122.788 1.58596 122.875 1.76768 122.875 1.99379V17.4578C122.854 17.6842 122.753 17.8659 122.57 18.0029C122.387 18.1406 122.163 18.2091 121.899 18.2091C121.635 18.2091 121.412 18.1364 121.229 17.991C121.046 17.8456 120.954 17.6681 120.954 17.4578V10.2348H108.577V17.4578C108.557 17.6681 108.456 17.8456 108.272 17.991C108.09 18.1364 107.866 18.2091 107.602 18.2091C107.317 18.2091 107.088 18.1406 106.916 18.0029C106.743 17.8659 106.657 17.6842 106.657 17.4578V1.99379C106.657 1.76768 106.748 1.58596 106.931 1.44848C107.114 1.3113 107.348 1.24249 107.632 1.24249C107.896 1.24249 108.12 1.31518 108.303 1.46055C108.486 1.60607 108.577 1.78407 108.577 1.99379V8.82889H120.954V1.99379C120.954 1.78407 121.051 1.60607 121.244 1.46055C121.437 1.31518 121.666 1.24249 121.93 1.24249C122.214 1.24249 122.443 1.3113 122.616 1.44848Z" fill="#060707"/>
<path d="M84.1898 17.2397L76.1721 1.65448C76.0908 1.5091 75.9743 1.39203 75.8218 1.30296C75.6693 1.21448 75.491 1.16965 75.2883 1.16965C74.8409 1.16965 74.5359 1.33141 74.3737 1.65448L66.3257 17.3124C66.3051 17.3607 66.2953 17.4334 66.2953 17.5305V17.6032C66.3152 17.7971 66.3965 17.9508 66.5389 18.0637C66.6809 18.1769 66.8944 18.2335 67.1792 18.2335C67.5651 18.2335 67.8394 18.072 68.0023 17.7485L75.1661 3.59349L82.4521 17.7485C82.533 17.8939 82.6503 18.0113 82.8028 18.1C82.9552 18.1888 83.1329 18.2335 83.3363 18.2335C83.5802 18.2335 83.7934 18.1689 83.9766 18.0393C84.1595 17.9103 84.2509 17.7408 84.2509 17.5305C84.2509 17.4661 84.2303 17.369 84.1898 17.2397Z" fill="#060707"/>
</svg>
