<svg width="23" height="22" viewBox="0 0 23 22" fill="none" xmlns="http://www.w3.org/2000/svg">
<path d="M20.166 21H2.08396C1.55461 21 1.125 20.5704 1.125 20.041C1.125 14.5264 5.61036 10.041 11.125 10.041C16.6396 10.041 21.125 14.5264 21.125 20.041C21.125 20.5704 20.6954 21 20.166 21ZM3.09917 19.0821H19.1508C18.6752 15.0762 15.2575 11.959 11.125 11.959C6.99254 11.959 3.57481 15.0762 3.09917 19.0821Z" fill="#060707"/>
<path d="M11.125 10.9373C8.38494 10.9373 6.15633 8.70873 6.15633 5.96867C6.15633 3.22862 8.38494 1 11.125 1C13.8651 1 16.0937 3.22862 16.0937 5.96867C16.0937 8.70873 13.8651 10.9373 11.125 10.9373ZM11.125 2.91791C9.44235 2.91791 8.07424 4.28603 8.07424 5.96867C8.07424 7.65132 9.44235 9.01943 11.125 9.01943C12.8076 9.01943 14.1758 7.65132 14.1758 5.96867C14.1758 4.28603 12.8076 2.91791 11.125 2.91791Z" fill="#060707"/>
</svg>
