<svg width="23" height="22" viewBox="0 0 23 22" fill="none" xmlns="http://www.w3.org/2000/svg">
<path d="M20.969 19.3637L17.2226 15.6173C18.468 14.0753 19.216 12.1151 19.216 9.98365C19.2173 5.03024 15.1871 1 10.2337 1C5.28024 1 1.25 5.03024 1.25 9.98365C1.25 14.9371 5.28024 18.9673 10.2337 18.9673C12.3651 18.9673 14.3253 18.2193 15.8673 16.9739L19.6137 20.7203C19.8004 20.907 20.0459 21.0016 20.2913 21.0016C20.5368 21.0016 20.7823 20.9083 20.969 20.7203C21.3437 20.3457 21.3437 19.7383 20.969 19.3637ZM3.16794 9.98365C3.16794 6.08767 6.33767 2.91794 10.2337 2.91794C14.1296 2.91794 17.2994 6.08767 17.2994 9.98365C17.2994 13.8796 14.1296 17.0494 10.2337 17.0494C6.33767 17.0494 3.16794 13.8796 3.16794 9.98365Z" fill="#060707"/>
</svg>
